<?xml version="1.0" encoding="UTF-8"?>
<svg id="Warstwa_1" data-name="Warstwa 1" xmlns="http://www.w3.org/2000/svg" viewBox="0 0 755.27 594.82">
  <defs>
    <style>
      .cls-1 {
        fill: #fff;
        opacity: .4;
        stroke: #fff;
        stroke-miterlimit: 11.36;
        stroke-width: 28px;
      }
    </style>
  </defs>
  <g id="SVGRepo_iconCarrier" data-name="SVGRepo iconCarrier">
    <path class="cls-1" d="M630.07,62.64c-47.08-22.03-97.42-38.03-150.04-47.15-6.46,11.69-14.01,27.4-19.22,39.9-55.94-8.41-111.37-8.41-166.29,0-5.21-12.5-12.93-28.22-19.45-39.9-52.68,9.12-103.08,25.18-150.16,47.27C29.96,206.25,4.22,346.18,17.09,484.12c62.98,47.03,124.01,75.6,184.02,94.3,14.82-20.39,28.03-42.07,39.41-64.91-21.68-8.24-42.44-18.4-62.06-30.21,5.21-3.86,10.3-7.89,15.22-12.04,119.67,55.97,249.69,55.97,367.93,0,4.98,4.15,10.07,8.18,15.22,12.04-19.68,11.86-40.5,22.03-62.18,30.26,11.38,22.79,24.54,44.52,39.41,64.91,60.06-18.7,121.15-47.27,184.13-94.36,15.1-159.91-25.8-298.55-108.11-421.47ZM256.82,399.29c-35.92,0-65.38-33.54-65.38-74.37s28.83-74.43,65.38-74.43,66.01,33.54,65.38,74.43c.06,40.84-28.83,74.37-65.38,74.37ZM498.45,399.29c-35.92,0-65.38-33.54-65.38-74.37s28.83-74.43,65.38-74.43,66.01,33.54,65.38,74.43c0,40.84-28.83,74.37-65.38,74.37Z"/>
  </g>
</svg>